<svg viewBox="0 0 215 43" xmlns="http://www.w3.org/2000/svg" data-logo="logo">
        <g transform="translate(0, 1) rotate(0)" id="logogram" style="opacity: 1;"><path fill="#1A5FB4" d="M40.207 22.1241H33.0426C26.7844 22.1241 21.7112 27.1973 21.7112 33.4555V40.6199C31.5885 39.8876 39.4747 32.0014 40.207 22.1241Z"></path><path fill="#1A5FB4" d="M18.7029 40.6199V33.4555C18.7029 27.1973 13.6296 22.1241 7.37148 22.1241H0.207031C0.939394 32.0014 8.8256 39.8876 18.7029 40.6199Z"></path><path fill="#1A5FB4" d="M40.207 19.1158C39.4747 9.23851 31.5885 1.3523 21.7112 0.619934V7.78438C21.7112 14.0425 26.7844 19.1158 33.0426 19.1158H40.207Z"></path><path fill="#1A5FB4" d="M18.7029 0.619934C8.8256 1.3523 0.939394 9.23851 0.207031 19.1158H7.37148C13.6296 19.1158 18.7029 14.0425 18.7029 7.78438V0.619934Z"></path><path fill="#63452C" d="M13.7722 20.6197C16.5524 19.2306 18.8182 16.9648 20.2073 14.1846C21.5963 16.9648 23.8621 19.2306 26.6423 20.6197C23.8621 22.0087 21.5963 24.2745 20.2073 27.0547C18.8182 24.2745 16.5524 22.0087 13.7722 20.6197Z"></path></g>
        <g transform="translate(47, 8.5)" id="logotype" style="opacity: 1;"><path d="M14.96 0.30L14.96 0.30Q15.66 0.30 16.04 0.78Q16.42 1.25 16.42 1.92L16.42 1.92L16.42 20.86Q16.42 21.35 16.48 21.82Q16.53 22.29 16.90 22.67L16.90 22.67Q17.36 23.13 17.70 23.41Q18.03 23.69 18.03 24.44L18.03 24.44Q18.03 25.21 17.55 25.61Q17.07 26 16.34 26L16.34 26L8.82 26Q8.08 26 7.61 25.61Q7.13 25.21 7.13 24.44L7.13 24.44Q7.13 23.80 7.37 23.50Q7.61 23.20 7.93 22.98Q8.26 22.75 8.50 22.35Q8.73 21.95 8.73 21.08L8.73 21.08L8.73 7.22Q8.73 6.40 8.46 6.02Q8.19 5.65 7.82 5.45Q7.45 5.25 7.18 4.99Q6.91 4.72 6.91 4.13L6.91 4.13Q6.91 3.44 7.35 3.07Q7.79 2.69 8.36 2.47L8.36 2.47L12.17 0.98Q12.85 0.71 13.54 0.50Q14.22 0.30 14.96 0.30ZM19.47 22.07L19.47 22.07Q19.47 20.50 20.20 19.45Q20.94 18.40 22.12 17.75Q23.31 17.11 24.70 16.84Q26.08 16.57 27.36 16.57L27.36 16.57Q27.74 16.57 28.13 16.57Q28.52 16.58 28.90 16.65L28.90 16.65L28.90 12.21Q28.90 11.78 28.72 11.22Q28.54 10.65 27.99 10.65L27.99 10.65Q27.46 10.65 27.34 11.09Q27.21 11.52 27.21 11.92L27.21 11.92Q27.21 12.09 27.22 12.27Q27.23 12.45 27.23 12.64L27.23 12.64Q27.23 14.40 26.01 15.11Q24.80 15.81 23.24 15.81L23.24 15.81Q21.94 15.81 20.99 15.23Q20.03 14.65 20.03 13.18L20.03 13.18Q20.03 12.60 20.26 12.05Q20.49 11.51 20.85 11.08L20.85 11.08Q21.89 9.82 23.47 9.15Q25.06 8.48 26.81 8.24Q28.56 7.99 30.10 7.99L30.10 7.99Q31.84 7.99 33.29 8.48Q34.75 8.98 35.62 10.13Q36.49 11.29 36.49 13.23L36.49 13.23L36.49 21.11Q36.49 21.40 36.63 21.63Q36.76 21.85 37.09 21.85L37.09 21.85Q37.34 21.85 37.52 21.68Q37.70 21.52 37.96 21.52L37.96 21.52Q38.45 21.52 38.70 21.86Q38.95 22.21 38.95 22.67L38.95 22.67Q38.95 23.86 38.22 24.73Q37.50 25.59 36.42 26.04Q35.34 26.50 34.25 26.50L34.25 26.50Q32.97 26.50 31.66 25.93Q30.35 25.37 29.86 24.17L29.86 24.17Q28.99 25.38 27.47 25.94Q25.96 26.50 24.51 26.50L24.51 26.50Q23.18 26.50 22.02 25.99Q20.87 25.49 20.17 24.50Q19.47 23.50 19.47 22.07ZM27.17 20.57L27.17 20.57Q27.17 21.25 27.50 21.86Q27.82 22.46 28.61 22.46L28.61 22.46Q28.76 22.46 28.90 22.43L28.90 22.43L28.90 18.89Q28.61 18.77 28.30 18.77L28.30 18.77Q27.65 18.77 27.41 19.41Q27.17 20.05 27.17 20.57ZM47.37 26.50L47.37 26.50Q44.45 26.50 42.77 25.14Q41.09 23.78 41.09 20.70L41.09 20.70L41.09 13.27Q41.09 12.53 40.76 12.17Q40.44 11.82 40.01 11.58Q39.58 11.35 39.26 11.02Q38.93 10.69 38.93 10.00L38.93 10.00Q38.93 9.30 39.43 8.90Q39.92 8.50 40.59 8.50L40.59 8.50L41.36 8.50Q41.85 8.50 42.34 8.00Q42.83 7.49 43.33 6.74Q43.84 5.99 44.39 5.24Q44.95 4.50 45.58 4.00Q46.21 3.49 46.96 3.49L46.96 3.49Q47.82 3.49 48.30 3.97Q48.78 4.45 48.78 5.30L48.78 5.30L48.78 8.50L52.66 8.50Q53.30 8.50 53.77 8.81Q54.23 9.12 54.23 9.83L54.23 9.83Q54.23 10.79 53.62 11.29Q53.01 11.78 52.16 11.94Q51.31 12.11 50.55 12.11L50.55 12.11L48.78 12.11L48.78 18.87Q48.78 19.71 49.10 20.45Q49.43 21.20 50.43 21.20L50.43 21.20Q51.10 21.20 51.57 20.81Q52.04 20.43 52.46 20.05Q52.88 19.68 53.36 19.68L53.36 19.68Q53.80 19.68 53.98 20.10Q54.16 20.53 54.16 20.87L54.16 20.87Q54.16 22.60 53.12 23.86Q52.07 25.13 50.51 25.81Q48.95 26.50 47.37 26.50ZM72.50 14.70L72.50 14.70Q72.50 16.22 71.60 17.01Q70.70 17.80 69.23 17.80L69.23 17.80L62.35 17.80Q62.74 19.27 63.75 20.27Q64.75 21.27 66.65 21.27L66.65 21.27Q67.40 21.27 68.15 20.95Q68.89 20.63 69.55 20.21Q70.21 19.78 70.70 19.46Q71.20 19.15 71.45 19.15L71.45 19.15Q71.95 19.15 72.17 19.50Q72.39 19.85 72.39 20.29L72.39 20.29Q72.39 21.85 71.67 23.02Q70.94 24.19 69.75 24.96Q68.57 25.73 67.16 26.11Q65.75 26.50 64.38 26.50L64.38 26.50Q61.70 26.50 59.65 25.38Q57.59 24.27 56.44 22.27Q55.29 20.26 55.29 17.54L55.29 17.54Q55.29 14.64 56.41 12.48Q57.53 10.33 59.63 9.14Q61.73 7.95 64.67 7.95L64.67 7.95Q66.70 7.95 68.49 8.72Q70.27 9.49 71.39 11.00Q72.50 12.50 72.50 14.70ZM62.04 15.17L62.04 15.17Q62.04 15.35 62.04 15.54L62.04 15.54L63.81 15.54Q64.46 15.54 64.70 15.24Q64.94 14.94 64.94 14.33L64.94 14.33Q64.94 13.92 64.84 13.25Q64.74 12.58 64.44 12.05Q64.14 11.52 63.58 11.52L63.58 11.52Q63.06 11.52 62.76 11.94Q62.45 12.36 62.29 12.99Q62.14 13.61 62.09 14.21Q62.04 14.81 62.04 15.17ZM90.49 7.95L90.49 7.95Q91.19 7.95 91.56 8.44Q91.93 8.93 91.93 9.58L91.93 9.58L91.93 11.30Q93.26 10.04 94.88 9.00Q96.49 7.95 98.03 7.95L98.03 7.95Q99.86 7.95 100.95 9.01Q102.04 10.07 102.47 11.59L102.47 11.59Q103.38 10.70 104.42 9.87Q105.46 9.03 106.59 8.49Q107.72 7.95 108.88 7.95L108.88 7.95Q110.50 7.95 111.56 8.80Q112.61 9.65 113.11 10.97Q113.61 12.29 113.61 13.75L113.61 13.75L113.61 20.86Q113.61 21.25 113.67 21.84Q113.72 22.43 114.04 22.70L114.04 22.70L114.04 22.72Q114.42 23.11 114.71 23.48Q115.00 23.85 115.00 24.44L115.00 24.44Q115.00 25.20 114.54 25.60Q114.08 26 113.34 26L113.34 26L106.32 26Q105.62 26 105.22 25.56Q104.83 25.13 104.83 24.44L104.83 24.44Q104.83 23.81 105.13 23.47Q105.43 23.13 105.72 22.71Q106.01 22.29 106.01 21.49L106.01 21.49L106.01 15.59Q106.01 15.11 105.91 14.58Q105.80 14.04 105.50 13.64Q105.19 13.25 104.57 13.25L104.57 13.25Q104.01 13.25 103.57 13.56Q103.14 13.87 102.76 14.24L102.76 14.24L102.76 21.33Q102.76 22.24 103.05 22.68Q103.34 23.13 103.63 23.47Q103.92 23.81 103.92 24.44L103.92 24.44Q103.92 25.15 103.54 25.57Q103.16 26 102.44 26L102.44 26L95.47 26Q94.75 26 94.37 25.56Q94.00 25.13 94.00 24.44L94.00 24.44Q94.00 23.81 94.29 23.46Q94.58 23.11 94.87 22.70Q95.16 22.29 95.16 21.49L95.16 21.49L95.16 15.59Q95.16 15.11 95.06 14.58Q94.95 14.04 94.65 13.64Q94.34 13.25 93.72 13.25L93.72 13.25Q93.18 13.25 92.73 13.55Q92.29 13.85 91.93 14.24L91.93 14.24L91.93 21.33Q91.93 22.26 92.22 22.70Q92.51 23.15 92.80 23.48Q93.09 23.81 93.09 24.44L93.09 24.44Q93.09 25.13 92.71 25.56Q92.34 26 91.62 26L91.62 26L84.60 26Q83.86 26 83.40 25.60Q82.94 25.20 82.94 24.44L82.94 24.44Q82.94 23.69 83.29 23.33Q83.64 22.98 83.98 22.56Q84.32 22.14 84.32 21.23L84.32 21.23L84.32 14.89Q84.32 14.12 84.08 13.74Q83.84 13.35 83.54 13.13Q83.23 12.91 82.99 12.63Q82.75 12.35 82.75 11.78L82.75 11.78Q82.75 11.08 83.17 10.72Q83.59 10.36 84.17 10.12L84.17 10.12L87.77 8.64Q88.42 8.36 89.10 8.16Q89.77 7.95 90.49 7.95ZM124.45 7.95L124.45 7.95Q125.15 7.95 125.53 8.43Q125.92 8.91 125.92 9.58L125.92 9.58L125.92 20.86Q125.92 21.33 125.96 21.82Q126.00 22.31 126.35 22.67L126.35 22.67Q126.79 23.15 127.09 23.42Q127.39 23.69 127.39 24.44L127.39 24.44Q127.39 25.20 126.92 25.60Q126.45 26 125.71 26L125.71 26L118.45 26Q117.72 26 117.25 25.61Q116.78 25.21 116.78 24.44L116.78 24.44Q116.78 23.71 117.07 23.41Q117.36 23.11 117.82 22.67L117.82 22.67Q118.16 22.33 118.20 21.81Q118.25 21.30 118.25 20.86L118.25 20.86L118.25 14.89Q118.25 14.55 118.19 14.18Q118.14 13.81 117.90 13.56L117.90 13.56Q117.84 13.47 117.74 13.42Q117.65 13.37 117.58 13.30L117.58 13.30Q117.20 12.91 116.89 12.66Q116.57 12.41 116.57 11.78L116.57 11.78Q116.57 11.10 117.00 10.72Q117.43 10.35 118.01 10.12L118.01 10.12L121.70 8.64Q122.35 8.38 123.05 8.17Q123.75 7.95 124.45 7.95ZM121.89 7.88L121.89 7.88Q120.79 7.88 119.68 7.56Q118.57 7.24 117.83 6.47Q117.08 5.71 117.08 4.42L117.08 4.42Q117.08 3.12 117.84 2.37Q118.59 1.63 119.70 1.32Q120.81 1.01 121.89 1.01L121.89 1.01Q122.96 1.01 124.08 1.32Q125.20 1.63 125.96 2.37Q126.72 3.12 126.72 4.42L126.72 4.42Q126.72 5.73 125.97 6.49Q125.22 7.25 124.10 7.57Q122.98 7.88 121.89 7.88ZM136.89 7.95L136.89 7.95Q137.59 7.95 137.96 8.44Q138.33 8.93 138.33 9.58L138.33 9.58L138.33 11.15Q139.68 9.90 141.30 8.93Q142.92 7.95 144.51 7.95L144.51 7.95Q146.17 7.95 147.26 8.77Q148.36 9.59 148.91 10.91Q149.47 12.23 149.47 13.75L149.47 13.75L149.47 20.86Q149.47 21.33 149.51 21.80Q149.55 22.26 149.88 22.67L149.88 22.67Q150.27 23.16 150.57 23.44Q150.87 23.71 150.87 24.44L150.87 24.44Q150.87 25.20 150.41 25.60Q149.95 26 149.21 26L149.21 26L142.07 26Q141.35 26 140.97 25.57Q140.58 25.15 140.58 24.44L140.58 24.44Q140.58 23.80 140.88 23.43Q141.18 23.06 141.48 22.66Q141.78 22.26 141.78 21.52L141.78 21.52L141.78 15.59Q141.78 14.79 141.46 14.02Q141.15 13.25 140.16 13.25L140.16 13.25Q139.56 13.25 139.13 13.48Q138.70 13.71 138.33 14.07L138.33 14.07L138.33 21.06Q138.33 21.52 138.36 21.99Q138.40 22.46 138.70 22.86L138.70 22.86Q139.06 23.28 139.30 23.55Q139.54 23.81 139.54 24.44L139.54 24.44Q139.54 25.15 139.16 25.57Q138.77 26 138.05 26L138.05 26L130.91 26Q130.17 26 129.71 25.60Q129.25 25.20 129.25 24.44L129.25 24.44Q129.25 23.88 129.47 23.56Q129.68 23.25 129.95 22.98Q130.23 22.70 130.44 22.31Q130.65 21.92 130.65 21.23L130.65 21.23L130.65 14.89Q130.65 14.12 130.41 13.73Q130.17 13.34 129.85 13.11Q129.53 12.88 129.29 12.60Q129.05 12.33 129.05 11.78L129.05 11.78Q129.05 11.11 129.49 10.73Q129.94 10.35 130.48 10.12L130.48 10.12L134.17 8.64Q134.82 8.36 135.50 8.16Q136.17 7.95 136.89 7.95ZM160.37 26.50L160.37 26.50Q157.45 26.50 155.77 25.14Q154.08 23.78 154.08 20.70L154.08 20.70L154.08 13.27Q154.08 12.53 153.76 12.17Q153.43 11.82 153.01 11.58Q152.58 11.35 152.25 11.02Q151.93 10.69 151.93 10.00L151.93 10.00Q151.93 9.30 152.43 8.90Q152.92 8.50 153.59 8.50L153.59 8.50L154.36 8.50Q154.85 8.50 155.34 8.00Q155.83 7.49 156.33 6.74Q156.83 5.99 157.39 5.24Q157.95 4.50 158.58 4.00Q159.21 3.49 159.96 3.49L159.96 3.49Q160.82 3.49 161.30 3.97Q161.77 4.45 161.77 5.30L161.77 5.30L161.77 8.50L165.65 8.50Q166.30 8.50 166.76 8.81Q167.23 9.12 167.23 9.83L167.23 9.83Q167.23 10.79 166.62 11.29Q166.01 11.78 165.16 11.94Q164.30 12.11 163.55 12.11L163.55 12.11L161.77 12.11L161.77 18.87Q161.77 19.71 162.10 20.45Q162.42 21.20 163.43 21.20L163.43 21.20Q164.10 21.20 164.57 20.81Q165.04 20.43 165.46 20.05Q165.88 19.68 166.35 19.68L166.35 19.68Q166.80 19.68 166.98 20.10Q167.16 20.53 167.16 20.87L167.16 20.87Q167.16 22.60 166.11 23.86Q165.07 25.13 163.51 25.81Q161.94 26.50 160.37 26.50Z" fill="#63452c"></path></g>
        
      </svg>